PathFileType	4	(X/Y/Z)	C:/Users/beibeiliu/ov580/test_trc/User1\sequence.33_training_dense_right.trc
DataRate	CameraRate	NumFrames	NumMarkers	Units	OrigDataRate	OrigDataStartFrame	OrigNumFrames
120	120	16	19	mm	120	1	260
Frame#	Time	ThumbCMC			ThumbMCP			ThumbIP			ThumbTip			IndexMCP			IndexPIP			IndexTip			MiddleMCP			MiddlePIP			MiddleTip			RingMCP			RingPIP			RingTip			PinkyMCP			PinkyPIP			PinkyTip			BackHand1			BackHand2			BackHand3	
		X0	Y0	Z0	X1	Y1	Z1	X2	Y2	Z2	X3	Y3	Z3	X4	Y4	Z4	X5	Y5	Z5	X6	Y6	Z6	X7	Y7	Z7	X8	Y8	Z8	X9	Y9	Z9	X10	Y10	Z10	X11	Y11	Z11	X12	Y12	Z12	X13	Y13	Z13	X14	Y14	Z14	X15	Y15	Z15	X16	Y16	Z16	X17	Y17	Z17	X18	Y18	Z18	
0	0	157.495	-23.809	79.3227	129.77	-41.1398	63.6319	114.976	-52.7598	42.2613	101.631	-63.9762	28.1794	174.816	-20.5734	-3.82875	173.918	-24.6721	-33.7553	172.354	-27.5902	-55.4922	208.035	-24.2949	-8.09242	207.473	-25.4216	-37.6667	213.613	-33.3957	-67.7111	226.723	-34.5623	1.13863	233.714	-34.367	-27.4734	240.76	-40.2312	-53.291	242.149	-54.5093	20.9018	254.863	-57.923	4.59967	267.954	-55.9469	-12.0608	222.244	-26.3636	51.5893	224.302	-15.6958	85.1459	191.721	-8.24619	66.0524	
1	0.00833333	154.388	-24.1258	75.6157	133.58	-41.8423	64.9374	116.129	-52.7988	41.1663	99.0031	-63.5354	31.5571	173.681	-20.6601	-2.75202	171.52	-21.8416	-32.4453	175.157	-29.0278	-58.2419	203.258	-23.019	-6.91977	206.248	-25.1744	-40.8295	212.826	-31.866	-68.7035	223.964	-32.7319	-0.888067	236.001	-35.3676	-23.1975	238.201	-39.0753	-52.3905	240.22	-53.9198	21.6717	254.33	-57.2182	3.97667	264.627	-54.3845	-16.7974	220.79	-26.0293	52.4494	223.226	-16.183	85.57	190.242	-7.04253	63.6963	
2	0.0166667	153.432	-22.674	80.9852	133.408	-42.0071	62.4011	114.938	-51.9062	42.0628	101.888	-62.7083	28.9754	173.798	-19.7887	-3.12763	170.515	-20.5255	-28.6812	175.546	-27.7973	-55.0685	203.775	-22.0549	-12.1158	205.717	-24.1007	-40.345	213.229	-31.2614	-69.9491	226.078	-32.703	0.795609	231.776	-32.8141	-23.9085	238.195	-38.4278	-51.1631	240.843	-51.7147	19.8799	252.309	-56.747	5.74444	262.632	-52.5037	-13.2203	221.492	-25.1315	51.2355	226.145	-15.668	82.7224	192.01	-6.31171	65.2163	
3	0.025	152.452	-21.2789	77.5111	131.216	-39.2357	64.7429	115.382	-50.3657	39.918	99.5375	-61.8438	28.0535	171.626	-17.1274	-2.0223	170.512	-19.3614	-33.5683	176.475	-26.1921	-57.3451	207.156	-21.1298	-10.1588	209.328	-23.4917	-41.6518	214.6	-30.6771	-68.6576	225.034	-28.8394	-1.69555	233.779	-29.9546	-28.4468	236.772	-35.3675	-52.965	240.359	-49.7841	19.9783	250.402	-54.0514	5.83295	265.629	-50.7698	-17.1594	219.375	-20.8691	50.0359	224.324	-15.3168	84.7833	188.145	-5.05908	61.0947	
4	0.0333333	151.486	-18.7496	75.5672	132.034	-37.5348	63.0858	115.001	-48.1294	41.0638	100.4	-60.8639	26.6533	173.277	-15.0292	-6.34649	170.326	-15.7623	-31.113	176.268	-23.917	-57.1751	202.052	-17.176	-8.19122	206.744	-20.4487	-42.5127	211.31	-25.3527	-68.2024	223.054	-28.1135	1.79886	230.592	-26.8035	-30.4248	237.113	-31.0372	-55.2323	240.769	-48.2407	21.8758	253.15	-50.7155	0.502772	265.346	-49.2102	-19.267	219.721	-19.5756	52.4116	227.61	-12.272	83.5955	193.225	-4.43025	64.2388	
5	0.0416667	151.94	-17.8088	73.8365	133.574	-36.1933	61.8757	117.063	-46.4411	44.895	101.276	-58.3698	29.7319	169.854	-12.6659	-5.71129	173.829	-15.1685	-34.2759	170.471	-18.3523	-61.2012	204.034	-15.479	-9.27349	208.458	-17.1822	-39.764	210.145	-21.7151	-67.6358	222.592	-24.3108	-3.10832	232.721	-24.2787	-28.0124	233.742	-28.0797	-52.8995	243.492	-45.6655	17.649	250.426	-46.9424	1.69402	267.777	-44.6023	-20.6242	223.465	-19.3239	48.598	224.507	-10.5198	79.6513	192.49	-2.74118	59.2871	
6	0.05	154.122	-16.412	73.3324	130.064	-32.0899	62.9346	111.005	-42.4167	42.97	96.174	-55.2669	31.1491	170.866	-10.225	-7.26432	168.674	-10.0515	-36.0264	175.354	-16.3847	-61.215	201.207	-10.9067	-12.2582	205.526	-13.1192	-41.8153	210.308	-18.3738	-71.3426	226.331	-21.565	-4.0192	233.305	-21.1598	-29.9116	236.804	-24.8958	-54.3046	240.108	-41.6656	17.0424	254.438	-45.8128	-1.01534	267.331	-41.3282	-22.8355	220.161	-13.8673	49.3701	222.101	-6.94184	80.1339	189.783	-0.16809	58.456	
7	0.0583333	153.237	-13.8077	76.1301	130.182	-30.1978	61.4328	111.919	-40.2416	42.9887	94.7165	-51.6099	29.4011	168.914	-6.53375	-8.95321	171.357	-8.46935	-38.9242	173.256	-10.6363	-65.0846	202.837	-9.62193	-15.5588	205.219	-10.5798	-45.1537	212.76	-16.0408	-77.0474	226.554	-20.0456	-6.69682	233.941	-18.9305	-33.0941	233.598	-20.8255	-56.7283	240.157	-38.8045	16.2555	250.239	-41.4317	-1.0516	266.498	-36.3475	-21.2404	219.695	-10.8024	43.0125	223.025	-3.92188	79.9329	187.64	3.42046	59.6017	
8	0.0666667	155.299	-13.1244	68.9164	130.259	-28.6048	60.5678	113.748	-38.2125	43.4413	94.4459	-49.2169	31.992	170.573	-5.31804	-11.8612	169.947	-3.72005	-38.7789	174.038	-7.04243	-62.0267	202.981	-6.97292	-16.1043	205.537	-8.20313	-49.4371	208.256	-12.4575	-73.6712	222.547	-16.5088	-5.26136	229.732	-15.6299	-33.0136	235.002	-18.4269	-61.7923	242.02	-36.4332	12.7929	250.507	-38.5377	-6.33389	265.787	-35.4385	-21.3564	223.852	-9.97601	42.3535	226.137	-3.61204	74.5035	190.981	3.42781	58.2061	
9	0.075	153.352	-10.0368	71.0161	129.404	-28.2774	58.3122	111.528	-36.9444	42.6363	92.2699	-47.7468	29.9039	172.321	-4.61202	-14.2563	167.744	-3.24397	-37.942	172.256	-6.06355	-67.6328	199.548	-4.50128	-21.7579	204.062	-6.80036	-52.0006	206.455	-9.78003	-77.2849	223.18	-15.4613	-7.96139	228.301	-13.6507	-35.9957	232.502	-16.9779	-63.2727	243.934	-35.7019	10.6557	251.728	-36.5266	-7.95898	262.687	-30.1487	-27.2995	218.161	-10.149	41.8881	225.573	-3.24286	70.2805	192.909	5.64897	55.53	
10	0.0833333	155.952	-10.9066	64.2064	127.591	-27.5322	54.3473	108.227	-38.0425	40.7007	92.0139	-49.4546	28.1656	170.464	-5.53022	-13.7615	168.083	-4.1882	-45.1778	175.573	-7.35148	-68.0319	202.052	-7.45427	-24.1481	206.658	-8.02035	-51.1058	208.993	-11.948	-80.5561	225.706	-15.8868	-14.3522	230.487	-13.9735	-39.5588	233.798	-17.3738	-65.8874	244.836	-36.8207	7.87717	252.175	-36.5596	-10.8001	265.807	-29.8962	-32.6705	219.168	-10.0816	40.0371	225.356	-0.802717	70.4441	191.852	3.22565	52.4619	
11	0.0916667	155.792	-11.4812	65.517	134.371	-29.6935	52.0837	109.447	-40.2516	35.1748	90.1693	-50.4855	26.5532	169.76	-7.63436	-19.6193	171.589	-7.19038	-47.5581	174.616	-9.2546	-73.668	200.242	-8.87691	-24.2096	206.457	-9.56697	-55.8782	207.6	-12.6957	-84.2774	225.913	-16.8431	-16.4736	232.485	-16.3141	-42.055	234.315	-19.3621	-70.7205	242.849	-35.3899	0.758788	255.863	-36.6747	-15.2639	267.936	-31.9124	-33.0346	222.21	-11.319	31.7261	225.265	-1.63323	65.5293	188.521	3.15855	44.8823	
12	0.1	154.229	-12.4493	61.4825	134.216	-31.7892	49.6143	113.928	-42.3722	37.2261	94.5159	-52.0401	28.016	170.659	-9.19102	-24.6948	173.329	-10.7342	-50.1669	173.25	-12.212	-72.0459	202.119	-10.2569	-31.886	209.939	-14.142	-60.8535	212.572	-17.8752	-86.9711	226.134	-18.7331	-20.5805	235.669	-18.769	-47.7185	234.863	-20.3099	-72.7433	246.783	-36.7198	0.072758	255.107	-37.8243	-16.7146	266.871	-32.4055	-36.1172	221.858	-9.89458	29.8385	225.584	-2.7817	61.7077	190.249	4.3552	44.7717	
13	0.108333	159.1	-14.8393	55.0979	134.247	-33.7322	47.2885	115.77	-44.306	32.9849	96.554	-55.0788	27.6045	175.902	-13.9633	-24.8064	176.502	-13.5864	-52.6738	177.316	-14.0919	-80.211	208.36	-14.0148	-29.7486	211.538	-15.7308	-59.452	216.509	-20.0869	-91.6791	230.903	-21.2776	-23.774	231.658	-19.9478	-48.5201	238.878	-22.8517	-71.0438	248.895	-38.76	1.52128	259.609	-40.6844	-18.9484	266.814	-34.045	-35.5391	222.895	-11.3499	30.1466	227.124	-2.49129	57.484	190.803	3.48937	41.4622	
14	0.116667	158.493	-16.6291	52.7487	133.431	-34.4462	48.0544	116.107	-46.6385	31.9933	94.8093	-59.0217	21.45	175.202	-15.1282	-30.8745	178.023	-17.3245	-57.6224	177.873	-18.0323	-80.251	205.513	-16.4985	-34.8106	213.286	-18.8081	-61.1721	216.793	-22.524	-92.9868	232.713	-24.2893	-24.6927	237.063	-22.5088	-53.7478	240.25	-24.667	-78.2211	249.169	-40.9622	-1.68765	262.04	-42.1324	-16.2732	272.671	-34.9005	-38.7944	227.568	-14.3329	26.0629	226.679	-2.20962	56.3732	192.622	-1.29176	35.1368	
15	0.125	158.115	-17.2728	49.9454	136.97	-37.2821	44.627	116.736	-48.6703	32.0639	99.3018	-61.188	23.7579	175.747	-18.2782	-32.2093	176.195	-20.3742	-59.9045	178.071	-21.1059	-82.7109	208.039	-19.1577	-39.1569	210.233	-20.8765	-68.1271	215.326	-24.0287	-93.8316	229.382	-24.9049	-28.6362	240.419	-24.6538	-51.087	243.803	-27.0273	-78.5165	251.641	-41.8397	-4.39828	262.813	-43.7828	-19.4981	273.052	-36.2441	-39.7579	230.267	-14.1698	24.14	231.93	-3.01371	51.2084	194.372	-2.06227	35.7352	
